<?xml version="1.0" standalone="no"?>
<!DOCTYPE svg PUBLIC "-//W3C//DTD SVG 20010904//EN"
 "http://www.w3.org/TR/2001/REC-SVG-20010904/DTD/svg10.dtd">
<svg version="1.0" xmlns="http://www.w3.org/2000/svg"
 width="900.000000pt" height="168.000000pt" viewBox="0 0 900.000000 168.000000"
 preserveAspectRatio="xMidYMid meet">
<metadata>
Created by potrace 1.10, written by Peter Selinger 2001-2011
</metadata>
<g transform="translate(0.000000,168.000000) scale(0.100000,-0.100000)"
fill="#000000" stroke="none">
<path d="M611 1619 c-36 -9 -77 -21 -91 -27 -14 -6 -32 -13 -40 -16 -8 -4 -28
-15 -45 -26 -16 -11 -37 -23 -45 -27 -18 -8 -83 -57 -129 -98 -41 -37 -140
-168 -162 -215 -71 -151 -83 -212 -76 -412 5 -157 14 -213 48 -288 7 -14 19
-41 28 -60 21 -47 120 -178 162 -215 104 -93 228 -163 337 -191 82 -22 7702
-22 7784 0 109 28 233 98 337 191 43 39 141 169 165 220 10 22 23 49 28 60 64
120 64 510 0 630 -5 11 -18 38 -28 60 -24 51 -122 181 -165 220 -46 41 -111
90 -129 98 -8 4 -28 16 -45 27 -16 11 -37 22 -45 26 -56 22 -91 34 -130 44
-33 8 -1070 11 -3869 13 -3499 2 -3829 1 -3890 -14z m7654 -175 c39 -9 82 -23
97 -30 14 -8 31 -14 36 -14 24 0 132 -74 188 -128 55 -53 134 -168 134 -195 0
-7 6 -21 13 -32 7 -11 22 -64 32 -118 18 -95 18 -99 0 -195 -10 -53 -25 -106
-32 -117 -7 -11 -13 -25 -13 -32 0 -25 -78 -140 -130 -193 -51 -51 -168 -130
-192 -130 -5 0 -22 -6 -36 -14 -15 -7 -58 -21 -97 -30 -64 -15 -378 -16 -3775
-16 -3397 0 -3711 1 -3775 16 -38 9 -82 23 -97 30 -14 8 -31 14 -36 14 -24 0
-138 77 -190 129 -54 53 -132 168 -132 194 0 7 -6 21 -13 32 -7 11 -22 64 -32
118 -18 95 -18 99 0 195 10 53 25 106 32 117 7 11 13 25 13 32 0 26 78 141
132 194 52 52 166 129 190 129 5 0 22 6 36 14 88 45 -91 43 3862 45 3409 1
3721 0 3785 -15z"/>
<path d="M773 1160 c-12 -5 -29 -21 -39 -35 -15 -23 -15 -31 -4 -68 24 -79 61
-210 85 -302 9 -33 23 -80 31 -105 8 -25 14 -55 14 -68 0 -31 52 -82 83 -82
13 0 32 9 42 21 22 23 54 137 55 190 0 71 34 126 58 96 6 -7 12 -37 15 -67 15
-154 35 -210 83 -232 20 -10 31 -9 52 4 30 18 61 86 61 135 1 17 5 34 10 37 5
4 12 25 16 49 4 23 13 62 20 87 8 25 21 72 30 105 9 33 23 80 31 105 19 59 17
80 -6 108 -41 50 -130 21 -130 -42 0 -11 -7 -43 -15 -70 -8 -27 -15 -70 -15
-96 0 -49 -13 -70 -42 -70 -19 0 -24 15 -32 100 -16 162 -35 203 -96 203 -55
0 -81 -47 -100 -179 -12 -88 -25 -124 -45 -124 -15 0 -19 13 -29 85 -24 165
-39 208 -78 219 -28 7 -27 7 -55 -4z"/>
<path d="M1540 1163 c-8 -3 -23 -15 -32 -27 -16 -19 -18 -51 -18 -307 l0 -285
30 -22 c38 -29 59 -28 93 3 l27 26 0 288 c0 262 -2 289 -17 304 -21 18 -62 28
-83 20z"/>
<path d="M1760 1163 c-8 -3 -23 -15 -32 -27 -16 -19 -18 -50 -18 -293 0 -149
3 -279 6 -288 13 -33 59 -45 179 -45 143 0 165 10 165 76 0 63 -26 77 -127 73
l-78 -4 4 230 c3 213 2 232 -15 252 -20 23 -59 36 -84 26z"/>
<path d="M2170 1163 c-50 -19 -50 -17 -50 -314 0 -152 3 -285 6 -294 13 -33
59 -45 179 -45 116 0 117 0 147 30 24 25 29 36 23 58 -14 56 -32 65 -117 59
-49 -4 -80 -2 -84 4 -3 6 -5 113 -5 238 2 207 0 229 -16 243 -21 19 -62 29
-83 21z"/>
<path d="M2566 1163 c-11 -3 -28 -15 -38 -27 -18 -20 -19 -37 -14 -296 2 -151
7 -282 11 -290 3 -8 17 -23 31 -33 27 -20 55 -17 88 8 18 13 19 32 19 310 0
319 0 318 -53 328 -14 3 -34 3 -44 0z"/>
<path d="M3974 1160 c-11 -4 -27 -22 -34 -39 -15 -38 -8 -61 101 -286 32 -67
33 -74 31 -171 l-3 -101 31 -32 c38 -38 69 -39 101 -5 22 24 24 32 21 121 -3
89 -1 101 26 157 16 34 40 86 52 116 12 30 33 78 46 107 28 61 29 76 8 107
-29 45 -98 42 -121 -5 -31 -65 -43 -99 -43 -118 0 -27 -28 -71 -45 -71 -8 0
-16 10 -20 23 -3 12 -10 40 -16 62 -20 74 -48 125 -75 135 -29 12 -32 12 -60
0z"/>
<path d="M6196 1148 c-31 -27 -30 -13 -28 -295 l2 -222 48 -48 c55 -55 133
-89 187 -80 60 10 139 54 165 93 24 37 25 43 31 268 6 254 1 288 -44 300 -53
13 -101 -24 -101 -77 1 -18 2 -112 3 -210 3 -174 2 -180 -20 -203 -30 -32 -75
-32 -104 0 -22 24 -22 28 -18 233 4 196 3 209 -16 231 -30 34 -72 39 -105 10z"/>
<path d="M7411 1158 c-13 -7 -27 -20 -31 -28 -14 -28 -38 -85 -55 -130 -9 -25
-23 -58 -30 -75 -7 -16 -20 -50 -30 -75 -10 -25 -23 -58 -30 -75 -7 -16 -21
-50 -30 -75 -10 -25 -23 -57 -31 -72 -21 -40 -17 -67 15 -99 49 -49 91 -31
129 54 l21 47 106 0 105 0 17 -37 c23 -50 62 -93 86 -93 23 0 77 52 77 75 0
17 -19 65 -46 118 -8 16 -14 33 -14 39 0 5 -6 24 -14 41 -7 18 -21 52 -31 77
-22 58 -44 108 -61 143 -8 16 -14 36 -14 45 0 9 -7 26 -15 36 -8 11 -15 27
-15 36 0 39 -68 69 -109 48z m55 -285 c3 -10 13 -32 22 -49 24 -49 11 -66 -45
-62 -57 4 -62 15 -33 81 21 48 46 61 56 30z"/>
<path d="M7847 1163 c-11 -3 -28 -14 -40 -26 -21 -21 -21 -28 -19 -307 l3
-285 25 -22 c34 -31 57 -29 93 8 l31 31 -5 107 c-4 58 -11 125 -17 149 -7 26
-7 47 -2 52 12 12 54 1 54 -14 0 -38 168 -316 206 -341 31 -20 62 -14 100 18
l26 23 2 284 c1 324 1 325 -72 325 -30 0 -45 -6 -61 -25 -19 -23 -20 -34 -15
-135 3 -60 10 -129 16 -153 12 -49 4 -64 -29 -56 -14 4 -24 17 -28 34 -5 23
-85 171 -125 230 -6 8 -14 24 -19 35 -21 46 -80 79 -124 68z"/>
<path d="M3012 1137 c-22 -23 -22 -30 -22 -301 l0 -278 29 -29 c35 -35 57 -36
95 -5 l29 24 -6 112 c-5 92 -3 112 9 117 16 6 54 -23 54 -42 0 -6 20 -51 45
-101 47 -92 83 -134 115 -134 20 0 80 63 80 84 0 7 -25 50 -55 95 -30 45 -55
86 -55 92 0 5 18 27 39 49 31 32 41 51 46 90 11 81 -2 141 -39 181 -58 62 -80
69 -218 69 -117 0 -126 -1 -146 -23z m258 -147 c20 -29 21 -32 6 -55 -22 -34
-50 -47 -94 -43 -37 3 -37 3 -40 52 -5 70 0 76 57 76 44 0 52 -4 71 -30z"/>
<path d="M3522 1137 c-22 -23 -22 -29 -22 -294 0 -149 3 -279 6 -288 14 -34
58 -45 193 -45 l129 0 31 31 c38 37 39 56 4 93 l-26 29 -93 -7 -93 -6 -7 35
c-3 19 -3 46 0 60 6 25 8 25 105 25 l99 0 20 32 c18 29 19 35 6 59 -25 49 -47
58 -136 52 -87 -7 -98 -1 -98 49 0 57 5 59 95 52 93 -7 116 0 135 45 10 26 10
35 -7 63 l-19 33 -150 3 c-146 2 -151 2 -172 -21z"/>
<path d="M4445 1140 c-15 -17 -18 -48 -22 -279 -3 -143 -3 -275 1 -294 9 -49
36 -57 182 -57 160 0 184 11 184 82 0 58 -30 73 -130 65 -92 -7 -103 0 -98 65
l3 43 95 3 c110 3 130 14 130 72 0 61 -25 75 -134 75 l-91 0 -3 44 c-2 28 1
47 10 52 7 4 48 5 91 2 72 -6 79 -4 102 17 18 17 25 34 25 60 0 64 -16 70
-182 70 -131 0 -147 -2 -163 -20z"/>
<path d="M4938 1127 c-68 -52 -96 -152 -64 -228 19 -45 71 -91 126 -113 82
-33 95 -43 98 -76 7 -67 -49 -81 -103 -26 -18 19 -42 37 -54 41 -27 8 -68 -16
-83 -51 -10 -21 -8 -32 11 -67 28 -51 50 -68 122 -91 67 -23 110 -17 168 22
71 48 97 112 85 206 -6 43 -14 57 -56 98 -27 26 -58 48 -68 48 -10 0 -21 4
-24 9 -3 5 -17 12 -31 15 -14 4 -35 16 -47 28 -29 29 -15 72 26 76 23 3 35 -4
58 -32 36 -44 81 -49 116 -12 28 30 28 59 1 103 -36 58 -87 83 -168 83 -63 0
-73 -3 -113 -33z"/>
<path d="M5592 1137 c-22 -23 -22 -30 -22 -305 l0 -282 33 -20 c58 -36 254
-22 342 24 145 74 206 276 130 429 -24 48 -75 105 -106 120 -8 4 -21 11 -29
16 -54 34 -92 41 -207 41 -112 0 -121 -1 -141 -23z m294 -149 c53 -31 78 -81
78 -154 0 -57 -3 -66 -37 -107 -29 -36 -47 -47 -95 -61 -66 -18 -112 -21 -113
-6 0 6 -1 87 -1 180 0 94 1 173 1 176 2 13 137 -10 167 -28z"/>
<path d="M6697 1142 c-15 -16 -17 -53 -17 -309 l0 -290 23 -21 c32 -30 60 -27
97 9 30 31 31 34 25 98 -3 36 -8 80 -11 97 -4 32 16 62 34 50 5 -3 35 -57 67
-121 73 -146 111 -178 163 -135 41 34 39 72 -7 150 -23 38 -46 70 -51 70 -19
0 -10 49 10 60 11 6 31 29 45 50 21 33 25 52 25 110 0 91 -29 140 -107 182
-49 27 -272 26 -296 0z m243 -142 c26 -26 25 -64 -2 -90 -18 -16 -33 -20 -68
-18 l-45 3 -3 49 c-5 69 0 76 53 76 32 0 51 -6 65 -20z"/>
</g>
</svg>
